<mxfile host="app.diagrams.net" modified="2021-12-13T23:54:11.025Z" agent="5.0 (Windows NT 10.0; Win64; x64) AppleWebKit/537.36 (KHTML, like Gecko) Chrome/96.0.4664.55 Safari/537.36 Edg/96.0.1054.43" etag="gtsK7sCXH1ASaKbTVofl" version="15.7.1" type="github">
  <diagram id="Qw4pzE0zCMLs73ferHWM" name="Page-1">
    <mxGraphModel dx="1422" dy="754" grid="1" gridSize="10" guides="1" tooltips="1" connect="1" arrows="1" fold="1" page="1" pageScale="1" pageWidth="850" pageHeight="1100" math="0" shadow="0">
      <root>
        <mxCell id="0" />
        <mxCell id="1" parent="0" />
        <mxCell id="WHFZ-CcsoAFAIAwf7ibP-4" value="code verification&lt;br&gt;adt4t manual upload" style="edgeStyle=orthogonalEdgeStyle;rounded=0;orthogonalLoop=1;jettySize=auto;html=1;exitX=0.5;exitY=0;exitDx=0;exitDy=0;entryX=0.5;entryY=1;entryDx=0;entryDy=0;" parent="1" source="WHFZ-CcsoAFAIAwf7ibP-1" target="WHFZ-CcsoAFAIAwf7ibP-2" edge="1">
          <mxGeometry relative="1" as="geometry" />
        </mxCell>
        <mxCell id="WHFZ-CcsoAFAIAwf7ibP-9" style="edgeStyle=orthogonalEdgeStyle;rounded=0;orthogonalLoop=1;jettySize=auto;html=1;exitX=1;exitY=0.5;exitDx=0;exitDy=0;" parent="1" source="WHFZ-CcsoAFAIAwf7ibP-1" target="WHFZ-CcsoAFAIAwf7ibP-7" edge="1">
          <mxGeometry relative="1" as="geometry" />
        </mxCell>
        <mxCell id="WHFZ-CcsoAFAIAwf7ibP-70" value="&lt;span style=&quot;font-size: 12px ; background-color: rgb(248 , 249 , 250)&quot;&gt;email verif.&lt;/span&gt;&lt;br style=&quot;font-size: 12px ; background-color: rgb(248 , 249 , 250)&quot;&gt;&lt;span style=&quot;font-size: 12px ; background-color: rgb(248 , 249 , 250)&quot;&gt;aad verif,&lt;/span&gt;&lt;br style=&quot;font-size: 12px ; background-color: rgb(248 , 249 , 250)&quot;&gt;&lt;span style=&quot;font-size: 12px ; background-color: rgb(248 , 249 , 250)&quot;&gt;shibboleth&lt;br&gt;&lt;/span&gt;" style="edgeLabel;html=1;align=center;verticalAlign=middle;resizable=0;points=[];" parent="WHFZ-CcsoAFAIAwf7ibP-9" vertex="1" connectable="0">
          <mxGeometry x="-0.3179" y="-3" relative="1" as="geometry">
            <mxPoint as="offset" />
          </mxGeometry>
        </mxCell>
        <mxCell id="WHFZ-CcsoAFAIAwf7ibP-1" value="&lt;p class=&quot;MsoListParagraph&quot; style=&quot;text-indent: -0.25in&quot;&gt;&amp;nbsp; &amp;nbsp; &amp;nbsp; &amp;nbsp; &amp;nbsp;UserRiskNotCalled&amp;nbsp;&lt;/p&gt;" style="ellipse;whiteSpace=wrap;html=1;fillColor=#f5f5f5;strokeColor=#666666;fontColor=#333333;" parent="1" vertex="1">
          <mxGeometry x="10" y="230" width="120" height="80" as="geometry" />
        </mxCell>
        <mxCell id="WHFZ-CcsoAFAIAwf7ibP-60" style="edgeStyle=orthogonalEdgeStyle;rounded=0;orthogonalLoop=1;jettySize=auto;html=1;exitX=1;exitY=0.5;exitDx=0;exitDy=0;entryX=0;entryY=0.5;entryDx=0;entryDy=0;fillColor=#d5e8d4;strokeColor=#82b366;" parent="1" source="WHFZ-CcsoAFAIAwf7ibP-2" target="WHFZ-CcsoAFAIAwf7ibP-56" edge="1">
          <mxGeometry relative="1" as="geometry">
            <Array as="points">
              <mxPoint x="670" y="60" />
              <mxPoint x="670" y="270" />
            </Array>
          </mxGeometry>
        </mxCell>
        <mxCell id="WHFZ-CcsoAFAIAwf7ibP-2" value="SheerIDOutOfScope&lt;br&gt;" style="ellipse;whiteSpace=wrap;html=1;fillColor=#f5f5f5;strokeColor=#666666;fontColor=#333333;" parent="1" vertex="1">
          <mxGeometry x="10" y="20" width="120" height="80" as="geometry" />
        </mxCell>
        <mxCell id="WHFZ-CcsoAFAIAwf7ibP-51" style="edgeStyle=orthogonalEdgeStyle;rounded=0;orthogonalLoop=1;jettySize=auto;html=1;exitX=1;exitY=0.5;exitDx=0;exitDy=0;entryX=0;entryY=0.5;entryDx=0;entryDy=0;fillColor=#f8cecc;strokeColor=#b85450;" parent="1" source="WHFZ-CcsoAFAIAwf7ibP-6" target="WHFZ-CcsoAFAIAwf7ibP-57" edge="1">
          <mxGeometry relative="1" as="geometry">
            <mxPoint x="700.0000000000005" y="650" as="targetPoint" />
            <Array as="points" />
          </mxGeometry>
        </mxCell>
        <mxCell id="WHFZ-CcsoAFAIAwf7ibP-6" value="UserRiskRejected" style="ellipse;whiteSpace=wrap;html=1;fillColor=#f8cecc;strokeColor=#b85450;" parent="1" vertex="1">
          <mxGeometry x="380" y="100" width="120" height="80" as="geometry" />
        </mxCell>
        <mxCell id="WHFZ-CcsoAFAIAwf7ibP-14" style="edgeStyle=orthogonalEdgeStyle;rounded=0;orthogonalLoop=1;jettySize=auto;html=1;exitX=0.5;exitY=0;exitDx=0;exitDy=0;entryX=0;entryY=0.5;entryDx=0;entryDy=0;" parent="1" source="WHFZ-CcsoAFAIAwf7ibP-7" target="WHFZ-CcsoAFAIAwf7ibP-6" edge="1">
          <mxGeometry relative="1" as="geometry" />
        </mxCell>
        <mxCell id="WHFZ-CcsoAFAIAwf7ibP-16" style="edgeStyle=orthogonalEdgeStyle;rounded=0;orthogonalLoop=1;jettySize=auto;html=1;exitX=1;exitY=0.5;exitDx=0;exitDy=0;entryX=0;entryY=0.5;entryDx=0;entryDy=0;" parent="1" source="WHFZ-CcsoAFAIAwf7ibP-7" target="WHFZ-CcsoAFAIAwf7ibP-10" edge="1">
          <mxGeometry relative="1" as="geometry" />
        </mxCell>
        <mxCell id="WHFZ-CcsoAFAIAwf7ibP-18" style="edgeStyle=orthogonalEdgeStyle;rounded=0;orthogonalLoop=1;jettySize=auto;html=1;exitX=0.5;exitY=1;exitDx=0;exitDy=0;entryX=0;entryY=0.5;entryDx=0;entryDy=0;" parent="1" source="WHFZ-CcsoAFAIAwf7ibP-7" target="WHFZ-CcsoAFAIAwf7ibP-11" edge="1">
          <mxGeometry relative="1" as="geometry" />
        </mxCell>
        <mxCell id="WHFZ-CcsoAFAIAwf7ibP-7" value="User Risk" style="whiteSpace=wrap;html=1;aspect=fixed;fillColor=#dae8fc;strokeColor=#6c8ebf;" parent="1" vertex="1">
          <mxGeometry x="230" y="230" width="80" height="80" as="geometry" />
        </mxCell>
        <mxCell id="WHFZ-CcsoAFAIAwf7ibP-53" style="edgeStyle=orthogonalEdgeStyle;rounded=0;orthogonalLoop=1;jettySize=auto;html=1;exitX=1;exitY=0.5;exitDx=0;exitDy=0;entryX=0;entryY=0.5;entryDx=0;entryDy=0;fillColor=#d5e8d4;strokeColor=#82b366;" parent="1" source="WHFZ-CcsoAFAIAwf7ibP-10" edge="1">
          <mxGeometry relative="1" as="geometry">
            <mxPoint x="700.0000000000005" y="270" as="targetPoint" />
          </mxGeometry>
        </mxCell>
        <mxCell id="WHFZ-CcsoAFAIAwf7ibP-10" value="UserRiskApproved" style="ellipse;whiteSpace=wrap;html=1;fillColor=#d5e8d4;strokeColor=#82b366;" parent="1" vertex="1">
          <mxGeometry x="380" y="230" width="120" height="80" as="geometry" />
        </mxCell>
        <mxCell id="WHFZ-CcsoAFAIAwf7ibP-11" value="UserRiskChallenge" style="ellipse;whiteSpace=wrap;html=1;fillColor=#fff2cc;strokeColor=#d6b656;" parent="1" vertex="1">
          <mxGeometry x="320" y="350" width="120" height="80" as="geometry" />
        </mxCell>
        <mxCell id="WHFZ-CcsoAFAIAwf7ibP-24" style="edgeStyle=orthogonalEdgeStyle;rounded=0;orthogonalLoop=1;jettySize=auto;html=1;exitX=1;exitY=0.5;exitDx=0;exitDy=0;entryX=0;entryY=0.5;entryDx=0;entryDy=0;" parent="1" source="WHFZ-CcsoAFAIAwf7ibP-19" target="WHFZ-CcsoAFAIAwf7ibP-22" edge="1">
          <mxGeometry relative="1" as="geometry" />
        </mxCell>
        <mxCell id="WHFZ-CcsoAFAIAwf7ibP-27" style="edgeStyle=orthogonalEdgeStyle;rounded=0;orthogonalLoop=1;jettySize=auto;html=1;exitX=0.5;exitY=1;exitDx=0;exitDy=0;entryX=0.5;entryY=0;entryDx=0;entryDy=0;" parent="1" source="WHFZ-CcsoAFAIAwf7ibP-19" target="WHFZ-CcsoAFAIAwf7ibP-25" edge="1">
          <mxGeometry relative="1" as="geometry" />
        </mxCell>
        <mxCell id="WHFZ-CcsoAFAIAwf7ibP-19" value="School Registry" style="whiteSpace=wrap;html=1;aspect=fixed;fillColor=#dae8fc;strokeColor=#6c8ebf;" parent="1" vertex="1">
          <mxGeometry x="340" y="490" width="80" height="80" as="geometry" />
        </mxCell>
        <mxCell id="WHFZ-CcsoAFAIAwf7ibP-20" value="" style="endArrow=classic;html=1;rounded=0;exitX=0.5;exitY=1;exitDx=0;exitDy=0;" parent="1" source="WHFZ-CcsoAFAIAwf7ibP-11" target="WHFZ-CcsoAFAIAwf7ibP-19" edge="1">
          <mxGeometry width="50" height="50" relative="1" as="geometry">
            <mxPoint x="400" y="550" as="sourcePoint" />
            <mxPoint x="450" y="500" as="targetPoint" />
          </mxGeometry>
        </mxCell>
        <mxCell id="WHFZ-CcsoAFAIAwf7ibP-54" style="edgeStyle=orthogonalEdgeStyle;rounded=0;orthogonalLoop=1;jettySize=auto;html=1;exitX=1;exitY=0.5;exitDx=0;exitDy=0;fillColor=#d5e8d4;strokeColor=#82b366;" parent="1" source="WHFZ-CcsoAFAIAwf7ibP-22" edge="1">
          <mxGeometry relative="1" as="geometry">
            <mxPoint x="700" y="270" as="targetPoint" />
            <Array as="points">
              <mxPoint x="670" y="530" />
              <mxPoint x="670" y="270" />
            </Array>
          </mxGeometry>
        </mxCell>
        <mxCell id="WHFZ-CcsoAFAIAwf7ibP-22" value="SchoolRegistry&lt;br&gt;Approved" style="ellipse;whiteSpace=wrap;html=1;fillColor=#d5e8d4;strokeColor=#82b366;" parent="1" vertex="1">
          <mxGeometry x="490" y="490" width="120" height="80" as="geometry" />
        </mxCell>
        <mxCell id="WHFZ-CcsoAFAIAwf7ibP-43" style="edgeStyle=orthogonalEdgeStyle;rounded=0;orthogonalLoop=1;jettySize=auto;html=1;exitX=0.5;exitY=1;exitDx=0;exitDy=0;entryX=0.5;entryY=0;entryDx=0;entryDy=0;" parent="1" source="WHFZ-CcsoAFAIAwf7ibP-25" target="WHFZ-CcsoAFAIAwf7ibP-28" edge="1">
          <mxGeometry relative="1" as="geometry" />
        </mxCell>
        <mxCell id="WHFZ-CcsoAFAIAwf7ibP-25" value="DocReviewNeeded" style="ellipse;whiteSpace=wrap;html=1;fillColor=#fff2cc;strokeColor=#d6b656;" parent="1" vertex="1">
          <mxGeometry x="320" y="630" width="120" height="80" as="geometry" />
        </mxCell>
        <mxCell id="WHFZ-CcsoAFAIAwf7ibP-45" style="edgeStyle=orthogonalEdgeStyle;rounded=0;orthogonalLoop=1;jettySize=auto;html=1;exitX=0.5;exitY=1;exitDx=0;exitDy=0;entryX=0.5;entryY=0;entryDx=0;entryDy=0;" parent="1" source="WHFZ-CcsoAFAIAwf7ibP-28" target="WHFZ-CcsoAFAIAwf7ibP-30" edge="1">
          <mxGeometry relative="1" as="geometry" />
        </mxCell>
        <mxCell id="WHFZ-CcsoAFAIAwf7ibP-28" value="Document upload" style="whiteSpace=wrap;html=1;aspect=fixed;fillColor=#dae8fc;strokeColor=#6c8ebf;" parent="1" vertex="1">
          <mxGeometry x="340" y="770" width="80" height="80" as="geometry" />
        </mxCell>
        <mxCell id="WHFZ-CcsoAFAIAwf7ibP-46" style="edgeStyle=orthogonalEdgeStyle;rounded=0;orthogonalLoop=1;jettySize=auto;html=1;exitX=1;exitY=0.5;exitDx=0;exitDy=0;entryX=0;entryY=0.5;entryDx=0;entryDy=0;" parent="1" source="WHFZ-CcsoAFAIAwf7ibP-28" target="WHFZ-CcsoAFAIAwf7ibP-33" edge="1">
          <mxGeometry relative="1" as="geometry" />
        </mxCell>
        <mxCell id="WHFZ-CcsoAFAIAwf7ibP-47" style="edgeStyle=orthogonalEdgeStyle;rounded=0;orthogonalLoop=1;jettySize=auto;html=1;entryX=0;entryY=0.5;entryDx=0;entryDy=0;" parent="1" target="WHFZ-CcsoAFAIAwf7ibP-34" edge="1">
          <mxGeometry relative="1" as="geometry">
            <mxPoint x="390" y="850" as="sourcePoint" />
          </mxGeometry>
        </mxCell>
        <mxCell id="WHFZ-CcsoAFAIAwf7ibP-62" style="edgeStyle=orthogonalEdgeStyle;rounded=0;orthogonalLoop=1;jettySize=auto;html=1;exitX=0.5;exitY=1;exitDx=0;exitDy=0;entryX=0.45;entryY=0.067;entryDx=0;entryDy=0;entryPerimeter=0;" parent="1" source="WHFZ-CcsoAFAIAwf7ibP-30" target="WHFZ-CcsoAFAIAwf7ibP-61" edge="1">
          <mxGeometry relative="1" as="geometry" />
        </mxCell>
        <mxCell id="WHFZ-CcsoAFAIAwf7ibP-65" value="" style="edgeStyle=orthogonalEdgeStyle;rounded=0;orthogonalLoop=1;jettySize=auto;html=1;" parent="1" source="WHFZ-CcsoAFAIAwf7ibP-30" edge="1">
          <mxGeometry relative="1" as="geometry">
            <mxPoint x="380" y="1070" as="targetPoint" />
          </mxGeometry>
        </mxCell>
        <mxCell id="WHFZ-CcsoAFAIAwf7ibP-30" value="DocReview&lt;br&gt;InProgress" style="ellipse;whiteSpace=wrap;html=1;fillColor=#fff2cc;strokeColor=#d6b656;" parent="1" vertex="1">
          <mxGeometry x="270" y="900" width="130" height="80" as="geometry" />
        </mxCell>
        <mxCell id="WHFZ-CcsoAFAIAwf7ibP-55" style="edgeStyle=orthogonalEdgeStyle;rounded=0;orthogonalLoop=1;jettySize=auto;html=1;exitX=1;exitY=0.5;exitDx=0;exitDy=0;entryX=0;entryY=0.5;entryDx=0;entryDy=0;fillColor=#d5e8d4;strokeColor=#82b366;" parent="1" source="WHFZ-CcsoAFAIAwf7ibP-33" edge="1">
          <mxGeometry relative="1" as="geometry">
            <mxPoint x="700.0000000000005" y="270" as="targetPoint" />
            <Array as="points">
              <mxPoint x="670" y="810" />
              <mxPoint x="670" y="270" />
            </Array>
          </mxGeometry>
        </mxCell>
        <mxCell id="WHFZ-CcsoAFAIAwf7ibP-33" value="DocReviewApproved" style="ellipse;whiteSpace=wrap;html=1;fillColor=#d5e8d4;strokeColor=#82b366;" parent="1" vertex="1">
          <mxGeometry x="500" y="770" width="120" height="80" as="geometry" />
        </mxCell>
        <mxCell id="WHFZ-CcsoAFAIAwf7ibP-52" style="edgeStyle=orthogonalEdgeStyle;rounded=0;orthogonalLoop=1;jettySize=auto;html=1;exitX=1;exitY=0.5;exitDx=0;exitDy=0;fillColor=#f8cecc;strokeColor=#b85450;" parent="1" source="WHFZ-CcsoAFAIAwf7ibP-34" target="WHFZ-CcsoAFAIAwf7ibP-63" edge="1">
          <mxGeometry relative="1" as="geometry">
            <mxPoint x="720" y="820" as="targetPoint" />
            <Array as="points">
              <mxPoint x="640" y="990" />
              <mxPoint x="640" y="990" />
            </Array>
          </mxGeometry>
        </mxCell>
        <mxCell id="WHFZ-CcsoAFAIAwf7ibP-34" value="DocReviewRejected" style="ellipse;whiteSpace=wrap;html=1;fillColor=#f8cecc;strokeColor=#b85450;" parent="1" vertex="1">
          <mxGeometry x="490" y="950" width="120" height="80" as="geometry" />
        </mxCell>
        <mxCell id="WHFZ-CcsoAFAIAwf7ibP-56" value="proceed to signup" style="whiteSpace=wrap;html=1;aspect=fixed;fillColor=#e1d5e7;strokeColor=#9673a6;" parent="1" vertex="1">
          <mxGeometry x="700" y="230" width="80" height="80" as="geometry" />
        </mxCell>
        <mxCell id="WHFZ-CcsoAFAIAwf7ibP-57" value="risk reject" style="whiteSpace=wrap;html=1;aspect=fixed;fillColor=#e1d5e7;strokeColor=#9673a6;" parent="1" vertex="1">
          <mxGeometry x="700" y="100" width="80" height="80" as="geometry" />
        </mxCell>
        <mxCell id="WHFZ-CcsoAFAIAwf7ibP-61" value="Doc review message" style="rounded=0;whiteSpace=wrap;html=1;fillColor=#dae8fc;strokeColor=#6c8ebf;" parent="1" vertex="1">
          <mxGeometry x="280" y="1010" width="120" height="60" as="geometry" />
        </mxCell>
        <mxCell id="WHFZ-CcsoAFAIAwf7ibP-63" value="doc review failed" style="whiteSpace=wrap;html=1;aspect=fixed;fillColor=#e1d5e7;strokeColor=#9673a6;" parent="1" vertex="1">
          <mxGeometry x="700" y="950" width="80" height="80" as="geometry" />
        </mxCell>
      </root>
    </mxGraphModel>
  </diagram>
</mxfile>
